<svg xmlns="http://www.w3.org/2000/svg" viewBox="0 0 44 44" fill="none"> <circle cx="22" cy="22" r="22" fill="#E32213"></circle> <path d="M17.72875 16.869075C17.909575 16.423225 18 15.83625 18 15.28385C18 14.64465 17.9188 14.094225 17.756425 13.632575C17.59775 13.170925 17.38 12.782275 17.103225 12.4666C16.830125 12.147 16.50905 11.890525 16.140025 11.6972C15.774675 11.50385 15.385325 11.3559 14.972 11.2533C14.56235 11.146775 14.1398 11.077725 13.704325 11.04615C13.441925 11.02475 13.33025 11.0098 13.077225 11.0013L13.3959 11.99455L13.491725 12.00745C13.816475 12.05875 14.538375 12.22 14.8336 12.330475C15.12885 12.440975 15.403775 12.583 15.658425 12.756625C15.91305 12.926275 16.134475 13.1295 16.3227 13.366225C16.5146 13.602975 16.6659 13.8772 16.776625 14.1889C16.887325 14.496675 16.948225 14.841925 16.9593 15.22465C16.970375 15.5995 16.9187 16.03655 16.8043 16.360075C16.693575 16.6797 16.53675 16.971675 16.333775 17.236025C16.1308 17.49645 15.889075 17.72925 15.6086 17.934425C15.328125 18.13565 15.021825 18.305325 14.689675 18.443425C14.361225 18.581525 14.014325 18.686075 13.648975 18.7571C13.283625 18.828125 12.916425 18.86365 12.547375 18.86365H12.353625C12.2909 18.86365 12.22815 18.8597 12.165425 18.8518L12.16545 12.06945V11.0013C12.080175 11.00395 11.98015 10.99735 11.89115 11.0013C11.625425 11.01315 11.288025 11.0309 11.000175 11.054575L11 19.940825C11.129175 19.9645 11.3406 19.980275 11.484525 19.988175C11.62845 19.99605 11.774225 20 11.92185 20C12.357325 20 12.8094 19.962525 13.278075 19.88755C13.746775 19.812575 14.206225 19.696175 14.65645 19.53835C15.1067 19.380525 15.534775 19.1793 15.940725 18.93465C16.346675 18.686075 16.700975 18.39015 17.003575 18.046875C17.309875 17.7036 17.5516 17.311 17.72875 16.869075Z" fill="white"></path> <path d="M12.2944 28.70125L17.69945 28.6085V24.02295L19 24.0006L18.9998 32.978L17.6996 32.9995V29.70975L12.294275 29.80125L12.2944 32.97775L11 33V24.027L12.294525 24L12.2944 28.70125Z" fill="white"></path> <path d="M30.926 29.01225L33 32.97625L31.76225 32.999L29.687 29.3415C29.15575 29.4205 28.6935 29.41825 28.1575 29.3875L28.482 28.41125C28.482 28.41125 29.26 28.37575 29.6795 28.3015C30.09925 28.22725 30.73825 28.12625 31.18 27.78C31.6505 27.46225 31.61375 26.78125 31.61375 26.78125C31.61375 26.78125 31.61875 26.48925 31.47625 26.2565C31.3375 26.024 31.14125 25.828 30.887 25.66925C30.63275 25.50625 30.3285 25.38225 29.97425 25.297C29.62375 25.21175 29.23875 25.169 28.819 25.169C28.64175 25.169 28.459 25.17675 28.27025 25.19225C28.1085 25.20375 27.9295 25.22125 27.733 25.2445C27.5395 25.26375 27.40775 25.294 27.227 25.33575L27.21875 32.97825L26 33V24.395475C26.33125 24.294675 26.6625 24.21905 26.9935 24.16865C27.32475 24.11825 27.627 24.079475 27.9005 24.05235C28.21625 24.0252 28.5225 24.00775 28.819 24C29.06925 24 29.3465 24.01745 29.65075 24.05235C29.955 24.087225 30.25925 24.149275 30.5635 24.23845C30.8715 24.327625 31.16825 24.4517 31.453 24.61065C31.742 24.769625 31.99425 24.973175 32.20975 25.22125C32.42925 25.4655 32.5485 25.74925 32.64575 26.1315C32.76 26.57925 32.73075 27.01825 32.64575 27.29475C32.33675 28.3015 31.65275 28.75575 30.926 29.01225Z" fill="white"></path> <path d="M31.44925 11.958975C31.06875 12.63575 30.709 13.531475 30.36975 14.2153C30.03225 14.89225 29.70975 15.577925 29.40225 16.272325L29.0095 17.205775L28.6005 18.2126L28.31975 19H27C27.53125 17.667575 28.06375 16.420175 28.708 15.130025C29.356 13.8399 30.04575 12.30135 30.77675 11.0359L32 11L31.44925 11.958975Z" fill="white"></path> </svg>