<svg width="492" height="64" viewBox="0 0 492 64" fill="none" xmlns="http://www.w3.org/2000/svg">
<rect x="1.27959" y="1.27959" width="488.924" height="61.3556" rx="30.6778" stroke="black" stroke-width="2.55918"/>
<path d="M54.768 20.7528V27.9185H45.0431V46.6006H36.8537V27.9185H27.1288V20.7528H54.768ZM55.2818 33.6511C55.2818 24.6428 61.7309 20.241 69.8692 20.241C77.9562 20.241 84.4053 24.6428 84.4053 33.6511C84.4053 42.7106 77.9562 47.1124 69.8692 47.1124C61.7309 47.1124 55.2818 42.7106 55.2818 33.6511ZM63.4712 33.6511C63.4712 38.0017 65.9792 39.9467 69.8692 39.9467C73.7079 39.9467 76.2159 38.0017 76.2159 33.6511C76.2159 29.3517 73.7079 27.4067 69.8692 27.4067C65.9792 27.4067 63.4712 29.3517 63.4712 33.6511ZM107.995 20.7528H116.184V46.6006H107.995V37.3875L93.0494 38.36C90.1831 38.5647 88.5452 37.0292 88.5452 34.1629V20.7528H96.7346V31.1431L107.995 30.2218V20.7528ZM148.95 46.6006H140.095L134.567 36.9269C134.107 36.978 133.646 36.978 133.134 36.978H130.524V46.6006H122.334V20.7528H130.524V29.8123H132.725L137.894 22.8513C139.174 21.1623 141.119 20.7528 143.32 20.7528H147.926V27.9185H143.78L140.658 32.0132L148.95 46.6006ZM151.501 39.5372C151.501 35.0842 154.163 32.4739 161.84 31.399L169.978 30.273C169.978 28.1744 168.341 26.8948 164.809 26.8948C161.533 26.8948 159.691 28.2768 159.691 30.6313H152.013C152.013 24.0797 157.592 20.241 164.809 20.241C171.923 20.241 178.168 23.6703 178.168 32.1668V39.4349H181.904V46.6006H176.223C173.766 46.6006 172.384 45.2186 172.384 42.7618V42.25L173.664 39.1789H171.616C170.644 43.4784 168.136 47.1124 160.919 47.1124C152.883 47.1124 151.501 42.1988 151.501 39.5372ZM159.691 38.0017C159.691 39.486 161.124 39.9467 162.506 39.9467C167.01 39.9467 169.978 38.0529 169.978 34.8795L163.376 35.8008C160.919 36.1591 159.691 36.5174 159.691 38.0017Z" fill="black"/>
<circle cx="208.237" cy="33.059" r="6.61188" fill="black"/>
<path d="M261.577 20.7528V46.6006H253.387V27.9185H243.458V46.6006H235.268V20.7528H261.577ZM266.684 33.6511C266.684 24.6428 273.133 20.241 281.272 20.241C289.359 20.241 295.808 24.6428 295.808 33.6511C295.808 42.7106 289.359 47.1124 281.272 47.1124C273.133 47.1124 266.684 42.7106 266.684 33.6511ZM274.874 33.6511C274.874 38.0017 277.382 39.9467 281.272 39.9467C285.11 39.9467 287.618 38.0017 287.618 33.6511C287.618 29.3517 285.11 27.4067 281.272 27.4067C277.382 27.4067 274.874 29.3517 274.874 33.6511ZM325.435 39.4349H328.813V53.7663H320.624V46.6006H305.064V53.7663H296.875V39.4349H300.253C303.017 35.7496 304.04 30.7848 304.04 20.7528H325.435V39.4349ZM308.442 39.4349H317.246V27.9185H311.974C311.564 33.3952 310.438 36.7733 308.442 39.4349ZM331.876 29.8635C331.876 19.1149 336.84 14.5596 345.132 11.898C351.53 9.85068 353.219 8.87819 353.68 6.93321H362.893C361.972 14.1501 355.113 16.0439 348.203 17.5282C341.242 19.0126 338.171 21.5717 337.147 26.7925L335.1 31.399H337.147C338.273 24.3357 342.726 20.241 349.483 20.241C357.416 20.241 362.739 25.8712 362.739 33.344C362.739 41.1239 358.082 47.1124 347.333 47.1124C337.403 47.1124 331.876 40.8168 331.876 29.8635ZM340.065 33.6511C340.065 37.797 342.726 39.9467 347.333 39.9467C351.94 39.9467 354.55 37.797 354.55 33.6511C354.55 29.5052 351.94 27.4067 347.333 27.4067C342.726 27.4067 340.065 29.5052 340.065 33.6511ZM367.002 33.6511C367.002 24.6428 373.451 20.241 381.59 20.241C389.677 20.241 396.126 24.6428 396.126 33.6511C396.126 42.7106 389.677 47.1124 381.59 47.1124C373.451 47.1124 367.002 42.7106 367.002 33.6511ZM375.192 33.6511C375.192 38.0017 377.7 39.9467 381.59 39.9467C385.428 39.9467 387.936 38.0017 387.936 33.6511C387.936 29.3517 385.428 27.4067 381.59 27.4067C377.7 27.4067 375.192 29.3517 375.192 33.6511ZM399.716 20.7528H407.905V22.3395L406.37 26.946H408.417C409.748 23.5167 412.205 20.241 418.603 20.241C426.075 20.241 429.812 26.383 429.812 33.7023C429.812 41.0215 426.075 47.1124 418.603 47.1124C412.205 47.1124 409.748 43.8367 408.417 40.4073H406.37L407.905 45.0139V56.3255H399.716V20.7528ZM407.905 33.7023C407.905 38.1041 410.362 39.9467 414.764 39.9467C419.166 39.9467 421.623 38.1041 421.623 33.7023C421.623 29.3005 419.166 27.4067 414.764 27.4067C410.362 27.4067 407.905 29.3005 407.905 33.7023ZM433.931 39.5372C433.931 35.0842 436.593 32.4739 444.27 31.399L452.408 30.273C452.408 28.1744 450.77 26.8948 447.239 26.8948C443.963 26.8948 442.12 28.2768 442.12 30.6313H434.443C434.443 24.0797 440.022 20.241 447.239 20.241C454.353 20.241 460.598 23.6703 460.598 32.1668V39.4349H464.334V46.6006H458.653C456.196 46.6006 454.814 45.2186 454.814 42.7618V42.25L456.094 39.1789H454.046C453.074 43.4784 450.566 47.1124 443.349 47.1124C435.313 47.1124 433.931 42.1988 433.931 39.5372ZM442.12 38.0017C442.12 39.486 443.554 39.9467 444.935 39.9467C449.44 39.9467 452.408 38.0529 452.408 34.8795L445.806 35.8008C443.349 36.1591 442.12 36.5174 442.12 38.0017Z" fill="black"/>
</svg>
